<svg width="20" height="20" viewBox="0 0 20 20" fill="none" xmlns="http://www.w3.org/2000/svg">
<path d="M11.6842 7.99465C11.999 8.21911 12.2697 8.46526 12.5881 8.68784M11.6842 7.99465C11.2152 7.6602 10.6545 7.37803 10.0968 7.09772M11.6842 7.99465L10.0968 10.9448M11.6842 7.99465L7 10.9961M12.5881 8.68784C12.9451 8.93743 13.366 9.16165 13.7598 9.39514M12.5881 8.68784L10.1595 10.9436M14.9319 10.3819C15.039 10.563 15.0463 10.8144 14.7576 10.8951C14.6541 10.924 14.5354 10.9222 14.4214 10.9201C14.0434 10.9133 13.6653 10.9098 13.2871 10.9089M14.9319 10.3819C14.7021 9.99338 14.2522 9.68702 13.7598 9.39514M14.9319 10.3819L13.2871 10.9089M5.62466 10.9984C5.39262 10.997 5.10863 10.9741 5.02277 10.8437M5.62466 10.9984C6.08312 11.0013 6.54157 11.0001 7 10.9961M5.62466 10.9984L9.44501 7.13008M5.02277 10.8437C4.97067 10.7646 5.01688 10.6751 5.07209 10.5968C5.2319 10.37 5.46521 10.1653 5.70225 9.96476C6.8653 8.98078 8.15594 8.05482 9.44501 7.13008M5.02277 10.8437L13.7598 9.39514M9.44501 7.13008C9.52644 7.07166 9.62057 7.00898 9.74618 7.00088M9.74618 7.00088C9.87765 6.9924 9.99516 7.04661 10.0968 7.09772M9.74618 7.00088L7 10.9961M9.74618 7.00088L10.0968 10.9448M9.74618 7.00088L13.2871 10.9089M9.74618 7.00088L8.22837 10.9802M10.0968 7.09772L10.1595 10.9436M7 10.9961C7.40947 10.9926 7.81893 10.987 8.22837 10.9802M10.0968 10.9448C10.1177 10.9444 10.1386 10.944 10.1595 10.9436M10.0968 10.9448C9.47404 10.9569 8.85122 10.9698 8.22837 10.9802M13.2871 10.9089L13.7598 9.39514M13.2871 10.9089C12.2447 10.9064 11.2021 10.9236 10.1595 10.9436M13.7598 9.39514L10.1595 10.9436" stroke="black" stroke-width="2" stroke-linejoin="round"/>
</svg>
