<svg width="20" height="20" viewBox="0 0 20 20" fill="none" xmlns="http://www.w3.org/2000/svg">
<path d="M8.31578 12.0053C8.00102 11.7809 7.73031 11.5347 7.41193 11.3122M8.31578 12.0053C8.78479 12.3398 9.34554 12.622 9.90317 12.9023M8.31578 12.0053L9.90317 9.05517M8.31578 12.0053L13 9.00387M7.41193 11.3122C7.05494 11.0626 6.634 10.8383 6.24018 10.6049M7.41193 11.3122L9.84053 9.05637M5.06814 9.61814C4.96105 9.43705 4.95371 9.18559 5.24239 9.10494C5.34587 9.07602 5.46462 9.07783 5.57856 9.07989C5.95665 9.08674 6.33475 9.09021 6.71286 9.0911M5.06814 9.61814C5.29786 10.0066 5.74784 10.313 6.24018 10.6049M5.06814 9.61814L6.71286 9.0911M14.3753 9.00157C14.6074 9.00302 14.8914 9.02591 14.9772 9.1563M14.3753 9.00157C13.9169 8.9987 13.4584 8.99994 13 9.00387M14.3753 9.00157L10.555 12.8699M14.9772 9.1563C15.0293 9.23542 14.9831 9.32491 14.9279 9.40325C14.7681 9.63003 14.5348 9.8347 14.2977 10.0352C13.1347 11.0192 11.8441 11.9452 10.555 12.8699M14.9772 9.1563L6.24018 10.6049M10.555 12.8699C10.4736 12.9283 10.3794 12.991 10.2538 12.9991M10.2538 12.9991C10.1223 13.0076 10.0048 12.9534 9.90317 12.9023M10.2538 12.9991L13 9.00387M10.2538 12.9991L9.90317 9.05517M10.2538 12.9991L6.71286 9.0911M10.2538 12.9991L11.7716 9.01983M9.90317 12.9023L9.84053 9.05637M13 9.00387C12.5905 9.00738 12.1811 9.01303 11.7716 9.01983M9.90317 9.05517C9.88229 9.05557 9.86141 9.05597 9.84053 9.05637M9.90317 9.05517C10.526 9.04312 11.1488 9.03016 11.7716 9.01983M6.71286 9.0911L6.24018 10.6049M6.71286 9.0911C7.75534 9.09356 8.7979 9.07642 9.84053 9.05637M6.24018 10.6049L9.84053 9.05637" stroke="black" stroke-width="2" stroke-linejoin="round"/>
</svg>
