<svg width="20" height="20" viewBox="0 0 20 20" fill="none" xmlns="http://www.w3.org/2000/svg">
<path d="M11.0053 11.6842C10.7809 11.999 10.5347 12.2697 10.3122 12.5881M11.0053 11.6842C11.3398 11.2152 11.622 10.6545 11.9023 10.0968M11.0053 11.6842L8.05517 10.0968M11.0053 11.6842L8.00387 7M10.3122 12.5881C10.0626 12.9451 9.83835 13.366 9.60486 13.7598M10.3122 12.5881L8.05637 10.1595M8.61814 14.9319C8.43705 15.039 8.18559 15.0463 8.10494 14.7576C8.07602 14.6541 8.07783 14.5354 8.07989 14.4214C8.08674 14.0434 8.09021 13.6653 8.0911 13.2871M8.61814 14.9319C9.00662 14.7021 9.31298 14.2522 9.60486 13.7598M8.61814 14.9319L8.0911 13.2871M8.00157 5.62466C8.00302 5.39262 8.0259 5.10863 8.1563 5.02277M8.00157 5.62466C7.9987 6.08312 7.99994 6.54157 8.00387 7M8.00157 5.62466L11.8699 9.44501M8.1563 5.02277C8.23542 4.97067 8.3249 5.01688 8.40325 5.07209C8.63003 5.2319 8.8347 5.46521 9.03524 5.70225C10.0192 6.8653 10.9452 8.15594 11.8699 9.44501M8.1563 5.02277L9.60486 13.7598M11.8699 9.44501C11.9283 9.52644 11.991 9.62057 11.9991 9.74618M11.9991 9.74618C12.0076 9.87765 11.9534 9.99516 11.9023 10.0968M11.9991 9.74618L8.00387 7M11.9991 9.74618L8.05517 10.0968M11.9991 9.74618L8.0911 13.2871M11.9991 9.74618L8.01983 8.22837M11.9023 10.0968L8.05637 10.1595M8.00387 7C8.00738 7.40947 8.01303 7.81893 8.01983 8.22837M8.05517 10.0968C8.05557 10.1177 8.05597 10.1386 8.05637 10.1595M8.05517 10.0968C8.04312 9.47404 8.03016 8.85122 8.01983 8.22837M8.0911 13.2871L9.60486 13.7598M8.0911 13.2871C8.09356 12.2447 8.07642 11.2021 8.05637 10.1595M9.60486 13.7598L8.05637 10.1595" stroke="black" stroke-width="2" stroke-linejoin="round"/>
</svg>
