<svg width="20" height="20" viewBox="0 0 20 20" fill="none" xmlns="http://www.w3.org/2000/svg">
<path d="M3.2197 8.17954C2.97731 12.1949 2.76223 19.1511 3.5762 18.9975C4.50454 18.8223 12.2844 18.467 16.2106 18.5996C16.678 15.6191 17.2604 10.3927 16.8738 7.61866M3.2197 8.17954C3.31279 6.63736 3.4428 4.57179 3.5762 4.56431C4.35253 4.51939 5.32584 4.47041 6.38708 4.42699M3.2197 8.17954C5.34757 7.88592 9.77613 7.61866 10.4639 7.61866C11.4136 7.61866 15.0225 7.64519 16.8738 7.61866M16.8738 7.61866C16.7323 6.6033 16.461 4.69221 16.0067 4.56431C15.5987 4.44946 14.8664 4.37837 13.9416 4.33939M6.38708 4.42699C8.89373 4.32445 11.8909 4.25297 13.9416 4.33939M6.38708 4.42699L6.03107 1.46487M13.9416 4.33939L14.0955 1M6.22531 11.3188C6.0487 12.4195 5.80144 14.6449 6.22531 14.7404C6.64917 14.8359 8.43971 14.621 9.28201 14.5017C9.36352 13.4407 9.47763 11.3188 9.28201 11.3188C9.03747 11.3188 6.31374 10.7076 6.22531 11.3188Z" stroke="black" stroke-width="2" stroke-linecap="round" stroke-linejoin="round"/>
</svg>
