<svg width="20" height="20" viewBox="0 0 20 20" fill="none" xmlns="http://www.w3.org/2000/svg">
<path d="M3.00975 4.53002C3.00673 6.69768 3.00371 8.86534 3.00069 11.033C2.99876 12.4175 2.99684 13.8025 3.05549 15.1857C3.07919 15.7445 3.14528 16.3716 3.56563 16.7222C3.94784 17.041 4.48989 17.0171 4.97891 16.9773C8.76591 16.6693 12.5529 16.3613 16.3399 16.0533C16.4514 16.0442 16.5665 16.0341 16.6654 15.9798C16.8971 15.8523 16.9555 15.5401 16.975 15.2688C17.0289 14.5184 16.9853 13.7645 16.9416 13.0134C16.754 9.78558 16.5664 6.55776 16.3789 3.32995C16.3741 3.24837 16.3673 3.16092 16.3175 3.09751C16.2464 3.00679 16.1176 2.99962 16.0048 3.00001C11.844 3.01439 7.68365 3.1841 3.53457 3.5087C3.12429 3.5408 3.01034 4.10345 3.00975 4.53002Z" stroke="black" stroke-width="2" stroke-linecap="round" stroke-linejoin="round"/>
</svg>
