<svg width="20" height="20" viewBox="0 0 20 20" fill="none" xmlns="http://www.w3.org/2000/svg">
<path d="M3.00982 4.53002C3.0068 6.69768 3.00373 8.86534 3.0007 11.033C2.99878 12.4175 2.99702 13.8025 3.05568 15.1857C3.07937 15.7445 3.14546 16.3716 3.56581 16.7222C3.94802 17.041 4.49012 17.0171 4.97914 16.9773C8.76613 16.6693 12.5529 16.3613 16.3399 16.0533C16.4514 16.0442 16.5666 16.0341 16.6655 15.9798C16.8972 15.8523 16.9556 15.5401 16.9751 15.2688C17.029 14.5184 16.9854 13.7645 16.9417 13.0134C16.7542 9.78558 16.5665 6.55776 16.3789 3.32995C16.3742 3.24837 16.3674 3.16092 16.3177 3.09751C16.2465 3.00679 16.1177 2.99962 16.0049 3.00001C11.8441 3.01439 7.68384 3.1841 3.53476 3.5087C3.12449 3.5408 3.01041 4.10345 3.00982 4.53002Z" fill="#DEE0E3"/>
<path d="M6.50013 10.1751C7.06307 10.917 7.54975 11.7558 8.2433 12.3333C9.87278 9.9734 10.5185 8.67377 12.3335 6.5M3.00982 4.53002C3.0068 6.69768 3.00373 8.86534 3.0007 11.033C2.99878 12.4175 2.99702 13.8025 3.05568 15.1857C3.07937 15.7445 3.14546 16.3716 3.56581 16.7222C3.94802 17.041 4.49012 17.0171 4.97914 16.9773C8.76613 16.6693 12.5529 16.3613 16.3399 16.0533C16.4514 16.0442 16.5666 16.0341 16.6655 15.9798C16.8972 15.8523 16.9556 15.5401 16.9751 15.2688C17.029 14.5184 16.9854 13.7645 16.9417 13.0134C16.7542 9.78558 16.5665 6.55776 16.3789 3.32995C16.3742 3.24837 16.3674 3.16092 16.3177 3.09751C16.2465 3.00679 16.1177 2.99962 16.0049 3.00001C11.8441 3.01439 7.68384 3.1841 3.53476 3.5087C3.12449 3.5408 3.01041 4.10345 3.00982 4.53002Z" stroke="black" stroke-width="2" stroke-linecap="round" stroke-linejoin="round"/>
</svg>
