<svg width="20" height="20" viewBox="0 0 20 20" fill="none" xmlns="http://www.w3.org/2000/svg">
<path d="M2.15544 12.935C1.88701 14.051 2.01682 15.1907 2.1666 16.3165C2.18652 16.4662 2.21216 16.6251 2.35103 16.7435C2.55134 16.9143 2.91485 16.9449 3.23942 16.9585C5.42396 17.0499 7.61558 16.9728 9.80136 16.8956C12.1336 16.8133 14.4658 16.7311 16.798 16.6488C16.9714 16.6426 17.1543 16.6345 17.2986 16.5701C17.4947 16.4826 17.5672 16.3162 17.6203 16.1629C18.0538 14.9105 18.117 13.6017 17.8053 12.3333M6.57145 8.45993L7.66185 9.96697C8.23028 10.7525 8.8052 11.5451 9.48495 12.1351C9.59376 12.2296 9.7102 12.3209 9.83819 12.3321M9.83819 12.3321C10.0492 12.3506 10.2345 12.1514 10.3957 11.9608C11.4716 10.6888 12.4856 9.31542 13.4286 7.85333M9.83819 12.3321V3" stroke="black" stroke-width="2" stroke-linecap="round" stroke-linejoin="round"/>
</svg>
