<svg width="20" height="20" viewBox="0 0 20 20" fill="none" xmlns="http://www.w3.org/2000/svg">
<path d="M3.05142 16.9574C2.9894 16.8984 2.99531 16.7943 3.00883 16.7065C3.15565 15.7538 3.60046 14.0542 4.1554 13.2942C4.71034 12.5342 5.37564 11.8771 6.0297 11.2143C8.72911 8.47848 11.2985 5.57541 14.2503 3.15881C14.3382 3.08685 14.4327 3.01262 14.5427 3.0015C14.7528 2.98027 14.9145 3.18783 15.0353 3.37364C15.3721 3.89195 16.5325 5.23379 16.8693 5.7521C16.9301 5.84565 16.993 5.94561 16.9994 6.05946C17.0105 6.25528 16.8559 6.41069 16.7148 6.53543C14.137 8.81562 11.6331 11.1923 9.20939 13.6597C8.46785 14.4146 7.72956 15.1817 6.88735 15.8031C6.04515 16.4245 4.26092 16.899 3.2431 16.9966C3.17638 17.003 3.10156 17.0051 3.05142 16.9574Z" stroke="black" stroke-width="2" stroke-linecap="round" stroke-linejoin="round"/>
</svg>
