<svg width="20" height="20" viewBox="0 0 20 20" fill="none" xmlns="http://www.w3.org/2000/svg">
<path d="M12.4656 10.2571L9.92145 10.8C9.65646 10.8566 9.38409 10.9137 9.10895 10.8967C8.83381 10.8797 8.55099 10.7717 8.44919 10.5847C8.3912 10.4782 8.39723 10.3597 8.40427 10.2452C8.45338 9.44603 8.51295 8.646 8.66325 7.85352C8.72554 7.52509 8.66313 7.78504 8.87263 6.8M16.7609 13.3635C17.9184 11.4936 18.4664 9.16421 17.5109 7.20366C17.2467 6.66163 16.8768 6.16572 16.4656 5.70426C14.378 3.36187 11.0737 1.88699 7.74451 2.00679C7.3033 2.02267 6.85909 2.06597 6.44099 2.19407C5.80238 2.38973 5.25621 2.77297 4.75741 3.18245C3.894 3.89124 3.12117 4.71439 2.65702 5.68065C2.09224 6.8564 2.01493 8.17083 2.00195 9.45216C1.99008 10.6228 2.02585 11.8019 2.29609 12.947C2.56632 14.092 3.08342 15.2092 3.94139 16.0875C5.64111 17.8277 8.54725 18.3854 11.0168 17.7399C12.4496 17.3653 13.7313 16.6338 14.8 15.6901C15.5731 15.0074 16.2347 14.2135 16.7609 13.3635Z" stroke="black" stroke-width="2" stroke-linecap="round" stroke-linejoin="round"/>
</svg>
