<svg width="20" height="20" viewBox="0 0 20 20" fill="none" xmlns="http://www.w3.org/2000/svg">
<path fill-rule="evenodd" clip-rule="evenodd" d="M4.00025 5C4.00025 4.44772 4.44796 4 5.00025 4H5.50025C6.05253 4 6.50025 4.44772 6.50025 5C6.50025 5.55228 6.05253 6 5.50025 6H5.00025C4.44796 6 4.00025 5.55228 4.00025 5ZM6.38517 9.27109C6.64239 9.75982 6.45472 10.3645 5.96599 10.6218L5.46599 10.8849C4.97727 11.1421 4.37255 10.9545 4.11533 10.4657C3.8581 9.97702 4.04577 9.37231 4.5345 9.11508L5.0345 8.85192C5.52323 8.5947 6.12794 8.78237 6.38517 9.27109ZM6.49887 14.4211C6.52789 14.9726 6.10433 15.4433 5.55281 15.4723L5.05281 15.4986C4.50129 15.5276 4.03066 15.1041 4.00163 14.5526C3.9726 14.001 4.39617 13.5304 4.94769 13.5014L5.44769 13.4751C5.99921 13.446 6.46984 13.8696 6.49887 14.4211ZM8.50025 5C8.50025 4.44772 8.94796 4 9.50025 4H10.0002C10.5525 4 11.0002 4.44772 11.0002 5C11.0002 5.55228 10.5525 6 10.0002 6H9.50025C8.94796 6 8.50025 5.55228 8.50025 5ZM10.8852 9.27109C11.1424 9.75982 10.9547 10.3645 10.466 10.6218L9.96599 10.8849C9.47727 11.1421 8.87255 10.9545 8.61533 10.4657C8.35811 9.97702 8.54577 9.37231 9.0345 9.11508L9.5345 8.85192C10.0232 8.5947 10.6279 8.78237 10.8852 9.27109ZM10.9989 14.4211C11.0279 14.9726 10.6043 15.4433 10.0528 15.4723L9.55281 15.4986C9.00129 15.5276 8.53066 15.1041 8.50163 14.5526C8.4726 14.001 8.89617 13.5304 9.44769 13.5014L9.94769 13.4751C10.4992 13.446 10.9698 13.8696 10.9989 14.4211ZM14.0002 4C13.448 4 13.0002 4.44772 13.0002 5C13.0002 5.55228 13.448 6 14.0002 6H14.5002C15.0525 6 15.5002 5.55228 15.5002 5C15.5002 4.44772 15.0525 4 14.5002 4H14.0002ZM14.966 10.6218C15.4547 10.3645 15.6424 9.75982 15.3852 9.27109C15.1279 8.78237 14.5232 8.5947 14.0345 8.85192L13.5345 9.11508C13.0458 9.37231 12.8581 9.97702 13.1153 10.4657C13.3726 10.9545 13.9773 11.1421 14.466 10.8849L14.966 10.6218ZM14.5528 15.4723C15.1043 15.4433 15.5279 14.9726 15.4989 14.4211C15.4698 13.8696 14.9992 13.446 14.4477 13.4751L13.9477 13.5014C13.3962 13.5304 12.9726 14.001 13.0016 14.5526C13.0307 15.1041 13.5013 15.5276 14.0528 15.4986L14.5528 15.4723Z" fill="black"/>
<path d="M5.96599 10.6218L6.19887 11.0642H6.19887L5.96599 10.6218ZM6.38517 9.27109L5.94271 9.50397H5.94271L6.38517 9.27109ZM5.46599 10.8849L5.23312 10.4425L5.46599 10.8849ZM4.5345 9.11508L4.30163 8.67262H4.30163L4.5345 9.11508ZM5.0345 8.85192L5.26737 9.29438L5.0345 8.85192ZM5.55281 15.4723L5.57909 15.9716H5.57909L5.55281 15.4723ZM5.05281 15.4986L5.07909 15.9979H5.07909L5.05281 15.4986ZM4.00163 14.5526L3.50232 14.5788H3.50232L4.00163 14.5526ZM4.94769 13.5014L4.92141 13.0021H4.92141L4.94769 13.5014ZM5.44769 13.4751L5.42141 12.9758H5.42141L5.44769 13.4751ZM10.466 10.6218L10.6989 11.0642L10.466 10.6218ZM10.8852 9.27109L10.4427 9.50397V9.50397L10.8852 9.27109ZM9.96599 10.8849L9.73312 10.4425L9.96599 10.8849ZM8.61533 10.4657L9.05779 10.2329L8.61533 10.4657ZM9.0345 9.11508L8.80163 8.67262L9.0345 9.11508ZM9.5345 8.85192L9.76737 9.29438L9.5345 8.85192ZM10.0528 15.4723L10.0791 15.9716H10.0791L10.0528 15.4723ZM9.55281 15.4986L9.57909 15.9979H9.57909L9.55281 15.4986ZM9.44769 13.5014L9.42141 13.0021H9.42141L9.44769 13.5014ZM9.94769 13.4751L9.92141 12.9758H9.92141L9.94769 13.4751ZM15.3852 9.27109L14.9427 9.50397L15.3852 9.27109ZM14.966 10.6218L15.1989 11.0642L14.966 10.6218ZM14.0345 8.85192L14.2674 9.29438L14.0345 8.85192ZM13.5345 9.11508L13.3016 8.67262L13.5345 9.11508ZM14.466 10.8849L14.2331 10.4425L14.466 10.8849ZM15.4989 14.4211L15.9982 14.3948V14.3948L15.4989 14.4211ZM14.5528 15.4723L14.5791 15.9716L14.5528 15.4723ZM14.4477 13.4751L14.4214 12.9758H14.4214L14.4477 13.4751ZM13.9477 13.5014L13.9214 13.0021L13.9477 13.5014ZM13.0016 14.5526L12.5023 14.5788V14.5788L13.0016 14.5526ZM14.0528 15.4986L14.0791 15.9979H14.0791L14.0528 15.4986ZM5.00025 3.5C4.17182 3.5 3.50025 4.17157 3.50025 5H4.50025C4.50025 4.72386 4.72411 4.5 5.00025 4.5V3.5ZM5.50025 3.5H5.00025V4.5H5.50025V3.5ZM7.00025 5C7.00025 4.17157 6.32868 3.5 5.50025 3.5V4.5C5.77639 4.5 6.00025 4.72386 6.00025 5H7.00025ZM5.50025 6.5C6.32868 6.5 7.00025 5.82843 7.00025 5H6.00025C6.00025 5.27614 5.77639 5.5 5.50025 5.5V6.5ZM5.00025 6.5H5.50025V5.5H5.00025V6.5ZM3.50025 5C3.50025 5.82843 4.17182 6.5 5.00025 6.5V5.5C4.72411 5.5 4.50025 5.27614 4.50025 5H3.50025ZM6.19887 11.0642C6.93196 10.6784 7.21346 9.77131 6.82762 9.03822L5.94271 9.50397C6.07132 9.74833 5.97748 10.0507 5.73312 10.1793L6.19887 11.0642ZM5.69887 11.3274L6.19887 11.0642L5.73312 10.1793L5.23312 10.4425L5.69887 11.3274ZM3.67287 10.6986C4.05871 11.4317 4.96578 11.7132 5.69887 11.3274L5.23312 10.4425C4.98876 10.5711 4.6864 10.4772 4.55779 10.2329L3.67287 10.6986ZM4.30163 8.67262C3.56854 9.05846 3.28703 9.96553 3.67287 10.6986L4.55779 10.2329C4.42918 9.98851 4.52301 9.68615 4.76737 9.55754L4.30163 8.67262ZM4.80163 8.40946L4.30163 8.67262L4.76737 9.55754L5.26737 9.29438L4.80163 8.40946ZM6.82762 9.03822C6.44179 8.30513 5.53472 8.02363 4.80163 8.40946L5.26737 9.29438C5.51174 9.16577 5.81409 9.2596 5.94271 9.50397L6.82762 9.03822ZM5.57909 15.9716C6.40637 15.9281 7.04172 15.2221 6.99817 14.3948L5.99956 14.4474C6.01407 14.7232 5.80229 14.9585 5.52653 14.973L5.57909 15.9716ZM5.07909 15.9979L5.57909 15.9716L5.52653 14.973L5.02653 14.9993L5.07909 15.9979ZM3.50232 14.5788C3.54586 15.4061 4.25181 16.0415 5.07909 15.9979L5.02653 14.9993C4.75077 15.0138 4.51545 14.802 4.50094 14.5263L3.50232 14.5788ZM4.92141 13.0021C4.09412 13.0456 3.45878 13.7516 3.50232 14.5788L4.50094 14.5263C4.48642 14.2505 4.69821 14.0152 4.97397 14.0007L4.92141 13.0021ZM5.42141 12.9758L4.92141 13.0021L4.97397 14.0007L5.47397 13.9744L5.42141 12.9758ZM6.99817 14.3948C6.95463 13.5676 6.24869 12.9322 5.42141 12.9758L5.47397 13.9744C5.74973 13.9599 5.98504 14.1716 5.99956 14.4474L6.99817 14.3948ZM9.50025 3.5C8.67182 3.5 8.00025 4.17157 8.00025 5H9.00025C9.00025 4.72386 9.22411 4.5 9.50025 4.5V3.5ZM10.0002 3.5H9.50025V4.5H10.0002V3.5ZM11.5002 5C11.5002 4.17157 10.8287 3.5 10.0002 3.5V4.5C10.2764 4.5 10.5002 4.72386 10.5002 5H11.5002ZM10.0002 6.5C10.8287 6.5 11.5002 5.82843 11.5002 5H10.5002C10.5002 5.27614 10.2764 5.5 10.0002 5.5V6.5ZM9.50025 6.5H10.0002V5.5H9.50025V6.5ZM8.00025 5C8.00025 5.82843 8.67182 6.5 9.50025 6.5V5.5C9.22411 5.5 9.00025 5.27614 9.00025 5H8.00025ZM10.6989 11.0642C11.432 10.6784 11.7135 9.77131 11.3276 9.03822L10.4427 9.50397C10.5713 9.74833 10.4775 10.0507 10.2331 10.1793L10.6989 11.0642ZM10.1989 11.3274L10.6989 11.0642L10.2331 10.1793L9.73312 10.4425L10.1989 11.3274ZM8.17287 10.6986C8.55871 11.4317 9.46578 11.7132 10.1989 11.3274L9.73312 10.4425C9.48876 10.5711 9.1864 10.4772 9.05779 10.2329L8.17287 10.6986ZM8.80163 8.67262C8.06854 9.05846 7.78703 9.96553 8.17287 10.6986L9.05779 10.2329C8.92918 9.98851 9.02301 9.68615 9.26737 9.55754L8.80163 8.67262ZM9.30163 8.40946L8.80163 8.67262L9.26737 9.55754L9.76737 9.29438L9.30163 8.40946ZM11.3276 9.03822C10.9418 8.30513 10.0347 8.02363 9.30163 8.40946L9.76737 9.29438C10.0117 9.16577 10.3141 9.2596 10.4427 9.50397L11.3276 9.03822ZM10.0791 15.9716C10.9064 15.9281 11.5417 15.2221 11.4982 14.3948L10.4996 14.4474C10.5141 14.7232 10.3023 14.9585 10.0265 14.973L10.0791 15.9716ZM9.57909 15.9979L10.0791 15.9716L10.0265 14.973L9.52653 14.9993L9.57909 15.9979ZM8.00232 14.5788C8.04586 15.4061 8.75181 16.0415 9.57909 15.9979L9.52653 14.9993C9.25077 15.0138 9.01545 14.802 9.00094 14.5263L8.00232 14.5788ZM9.42141 13.0021C8.59412 13.0456 7.95878 13.7516 8.00232 14.5788L9.00094 14.5263C8.98642 14.2505 9.19821 14.0152 9.47397 14.0007L9.42141 13.0021ZM9.92141 12.9758L9.42141 13.0021L9.47397 14.0007L9.97397 13.9744L9.92141 12.9758ZM11.4982 14.3948C11.4546 13.5676 10.7487 12.9322 9.92141 12.9758L9.97397 13.9744C10.2497 13.9599 10.485 14.1716 10.4996 14.4474L11.4982 14.3948ZM13.5002 5C13.5002 4.72386 13.7241 4.5 14.0002 4.5V3.5C13.1718 3.5 12.5002 4.17157 12.5002 5H13.5002ZM14.0002 5.5C13.7241 5.5 13.5002 5.27614 13.5002 5H12.5002C12.5002 5.82843 13.1718 6.5 14.0002 6.5V5.5ZM14.5002 5.5H14.0002V6.5H14.5002V5.5ZM15.0002 5C15.0002 5.27614 14.7764 5.5 14.5002 5.5V6.5C15.3287 6.5 16.0002 5.82843 16.0002 5H15.0002ZM14.5002 4.5C14.7764 4.5 15.0002 4.72386 15.0002 5H16.0002C16.0002 4.17157 15.3287 3.5 14.5002 3.5V4.5ZM14.0002 4.5H14.5002V3.5H14.0002V4.5ZM14.9427 9.50397C15.0713 9.74833 14.9775 10.0507 14.7331 10.1793L15.1989 11.0642C15.932 10.6784 16.2135 9.77131 15.8276 9.03822L14.9427 9.50397ZM14.2674 9.29438C14.5117 9.16577 14.8141 9.2596 14.9427 9.50397L15.8276 9.03822C15.4418 8.30513 14.5347 8.02363 13.8016 8.40946L14.2674 9.29438ZM13.7674 9.55754L14.2674 9.29438L13.8016 8.40946L13.3016 8.67262L13.7674 9.55754ZM13.5578 10.2329C13.4292 9.98851 13.523 9.68615 13.7674 9.55754L13.3016 8.67262C12.5685 9.05846 12.287 9.96553 12.6729 10.6986L13.5578 10.2329ZM14.2331 10.4425C13.9888 10.5711 13.6864 10.4772 13.5578 10.2329L12.6729 10.6986C13.0587 11.4317 13.9658 11.7132 14.6989 11.3274L14.2331 10.4425ZM14.7331 10.1793L14.2331 10.4425L14.6989 11.3274L15.1989 11.0642L14.7331 10.1793ZM14.9996 14.4474C15.0141 14.7232 14.8023 14.9585 14.5265 14.973L14.5791 15.9716C15.4064 15.9281 16.0417 15.2221 15.9982 14.3948L14.9996 14.4474ZM14.474 13.9744C14.7497 13.9599 14.985 14.1716 14.9996 14.4474L15.9982 14.3948C15.9546 13.5676 15.2487 12.9322 14.4214 12.9758L14.474 13.9744ZM13.974 14.0007L14.474 13.9744L14.4214 12.9758L13.9214 13.0021L13.974 14.0007ZM13.5009 14.5263C13.4864 14.2505 13.6982 14.0152 13.974 14.0007L13.9214 13.0021C13.0941 13.0456 12.4588 13.7516 12.5023 14.5788L13.5009 14.5263ZM14.0265 14.9993C13.7508 15.0138 13.5155 14.802 13.5009 14.5263L12.5023 14.5788C12.5459 15.4061 13.2518 16.0415 14.0791 15.9979L14.0265 14.9993ZM14.5265 14.973L14.0265 14.9993L14.0791 15.9979L14.5791 15.9716L14.5265 14.973Z" fill="black"/>
</svg>
