<svg width="20" height="20" viewBox="0 0 20 20" fill="none" xmlns="http://www.w3.org/2000/svg">
<path d="M6.4287 7.3355C5.11687 7.45882 4.15735 7.61667 4 7.7695V17.7733C6.37761 17.6222 12.0128 17.4561 15.5325 18C15.7769 14.9784 16.1924 8.70198 15.8991 7.7695C15.7874 7.41428 14.6912 7.22446 13.205 7.14779M6.4287 7.3355C6.11911 5.48362 6.30655 1.8252 9.53296 2.0065C10.0997 2.03834 11.0195 2.16336 11.4328 2.36286C13.3722 3.2991 13.3042 5.79733 13.205 7.14779M6.4287 7.3355C8.40073 7.15012 11.1689 7.04277 13.205 7.14779M9.13299 10.6509C9.63295 10.3811 10.7129 10.0034 11.0328 10.6509C11.4328 11.4603 11.5661 12.6906 11.0328 12.9496C10.4995 13.2086 9.53296 13.6618 8.89968 13.3057C8.26639 12.9496 8.73302 10.6509 9.13299 10.6509Z" stroke="black" stroke-width="2" stroke-linecap="round" stroke-linejoin="round"/>
</svg>
