<svg width="20" height="20" viewBox="0 0 20 20" fill="none" xmlns="http://www.w3.org/2000/svg">
<path d="M5.81495 10.6265C6.03121 10.3067 6.06427 9.87938 5.88038 9.54224M5.81495 10.6265C5.74977 10.7228 5.6686 10.8108 5.56861 10.8757C5.27678 11.0653 4.864 11.0243 4.56471 10.8452M5.81495 10.6265L4.02418 9.67945M5.88038 9.54224C5.69649 9.20511 5.29493 8.97787 4.89234 9.00172M5.88038 9.54224L4.56471 10.8452M5.88038 9.54224L4.00758 10.0083M4.89234 9.00172C4.48976 9.02556 4.11458 9.31031 4.02418 9.67945M4.89234 9.00172L4.56471 10.8452M4.02418 9.67945C3.99785 9.78695 3.99425 9.89872 4.00758 10.0083M4.00758 10.0083C4.04868 10.3462 4.25923 10.6625 4.56471 10.8452M10.815 10.6265C11.0312 10.3067 11.0643 9.87938 10.8804 9.54224M10.815 10.6265C10.7498 10.7228 10.6686 10.8108 10.5686 10.8757C10.2768 11.0653 9.864 11.0243 9.56471 10.8452M10.815 10.6265L9.02418 9.67945M10.8804 9.54224C10.6965 9.20511 10.2949 8.97787 9.89234 9.00172M10.8804 9.54224L9.56471 10.8452M10.8804 9.54224L9.00758 10.0083M9.89234 9.00172C9.48976 9.02556 9.11458 9.31031 9.02418 9.67945M9.89234 9.00172L9.56471 10.8452M9.02418 9.67945C8.99785 9.78695 8.99425 9.89872 9.00758 10.0083M9.00758 10.0083C9.04868 10.3462 9.25923 10.6625 9.56471 10.8452M15.815 10.6265C16.0312 10.3067 16.0643 9.87938 15.8804 9.54224M15.815 10.6265C15.7498 10.7228 15.6686 10.8108 15.5686 10.8757C15.2768 11.0653 14.864 11.0243 14.5647 10.8452M15.815 10.6265L14.0242 9.67945M15.8804 9.54224C15.6965 9.20511 15.2949 8.97787 14.8923 9.00172M15.8804 9.54224L14.5647 10.8452M15.8804 9.54224L14.0076 10.0083M14.8923 9.00172C14.4898 9.02556 14.1146 9.31031 14.0242 9.67945M14.8923 9.00172L14.5647 10.8452M14.0242 9.67945C13.9979 9.78695 13.9942 9.89872 14.0076 10.0083M14.0076 10.0083C14.0487 10.3462 14.2592 10.6625 14.5647 10.8452" stroke="black" stroke-width="2" stroke-linejoin="round"/>
</svg>
