<svg width="20" height="20" viewBox="0 0 20 20" fill="none" xmlns="http://www.w3.org/2000/svg">
<path d="M7.99993 4.17925C8.75172 3.96911 9.54432 3.92298 10.1094 3.95423C10.5942 4.00509 11.0327 4.10972 11.4296 4.25849M7.99993 4.17925C6.86797 4.49566 5.82852 5.18389 5.79759 6.5397C5.7461 8.79597 5.34229 10.4282 4.96097 11.2404C4.57965 12.0525 1.95673 14.3104 2.00054 14.7071C2.04436 15.1038 4.49773 15.8235 9.0798 15.5885C9.30125 15.5771 9.51827 15.5659 9.7309 15.5549M7.99993 4.17925C8.15355 3.48697 8.68095 2.08296 9.5615 2.00516C10.6622 1.9079 11.8774 3.2052 11.4296 4.25849M11.4296 4.25849C15.6156 5.82767 15.4013 12.0771 15.5797 12.4155C15.758 12.754 18.3469 14.2958 17.9608 14.7071C17.5896 15.1025 15.0178 15.2807 9.7309 15.5549M9.7309 15.5549C9.07754 16.0631 8.31431 16.8436 8.4253 17.3065C8.53629 17.7694 9.63251 18.6032 10.9818 17.3065C12.0611 16.2691 10.5976 15.7065 9.7309 15.5549Z" stroke="black" stroke-width="2" stroke-linecap="round" stroke-linejoin="round"/>
</svg>
