<svg width="20" height="20" viewBox="0 0 20 20" fill="none" xmlns="http://www.w3.org/2000/svg">
<path d="M3.01984 10.8306C3.10136 11.7505 3.43625 12.6315 3.90368 13.4093C4.28845 14.0495 4.76426 14.6272 5.30977 15.1166C7.00655 16.6388 9.34772 17.237 11.5438 16.9159C12.2592 16.8113 12.9667 16.6136 13.6164 16.2773C15.207 15.454 16.3675 13.8032 16.7969 11.9729C17.2263 10.1427 16.9542 8.16168 16.1751 6.468C15.9368 5.94996 15.6485 5.4503 15.2593 5.04966C14.6788 4.45209 13.9127 4.11111 13.158 3.80774C12.0214 3.35093 10.8327 2.94369 9.61973 3.00641C7.74273 3.10346 6.05316 4.32747 4.82489 5.84541C3.70336 7.23142 2.85828 9.00737 3.01984 10.8306Z" stroke="black" stroke-width="2" stroke-linecap="round" stroke-linejoin="round"/>
</svg>
