<svg width="20" height="20" viewBox="0 0 20 20" fill="none" xmlns="http://www.w3.org/2000/svg">
<path d="M15.9158 12.9431C16.9286 11.3069 17.4081 9.26869 16.572 7.5532C16.3409 7.07893 16.0172 6.64501 15.6574 6.24123C13.8307 4.19164 10.9395 2.90111 8.02645 3.00594C7.64039 3.01983 7.25171 3.05772 6.88587 3.16981C6.32709 3.34102 5.84919 3.67635 5.41273 4.03465C4.65726 4.65483 3.98103 5.3751 3.57489 6.22057C3.08071 7.24935 3.01306 8.39948 3.0017 9.52064C2.99132 10.545 3.02262 11.5767 3.25907 12.5786C3.49553 13.5805 3.948 14.558 4.69872 15.3266C6.18597 16.8492 8.72885 17.3372 10.8897 16.7724C12.1434 16.4446 13.2649 15.8046 14.2 14.9788C14.8765 14.3814 15.4554 13.6868 15.9158 12.9431Z" fill="#DEE0E3"/>
<path d="M12.3662 11.1772C12.7714 10.5228 12.9632 9.70747 12.6287 9.02128C12.5363 8.83157 12.407 8.658 12.263 8.49649C11.9423 8.13659 11.5394 7.8352 11.0898 7.61386C10.5151 7.33099 9.86413 7.17885 9.21043 7.20238C9.056 7.20793 8.90081 7.22309 8.75447 7.26792C8.53096 7.33641 8.3398 7.47054 8.16521 7.61386C7.86302 7.86193 7.59246 8.15004 7.43001 8.48823C7.36531 8.62292 7.31888 8.76281 7.28553 8.90579C7.217 9.19966 7.20372 9.50658 7.20067 9.80826C7.19651 10.218 7.20896 10.6307 7.30355 11.0314C7.35671 11.2567 7.43719 11.4789 7.5508 11.6848C7.63933 11.8453 7.74797 11.996 7.87947 12.1306C8.47437 12.7397 9.49146 12.9349 10.3558 12.7089C10.8573 12.5779 11.3059 12.3218 11.6799 11.9915C11.9505 11.7526 12.1821 11.4747 12.3662 11.1772Z" fill="#DEE0E3"/>
<path d="M12.3662 11.1772C12.7714 10.5228 12.9632 9.70747 12.6287 9.02128C12.5363 8.83157 12.407 8.658 12.263 8.49649C11.9423 8.13659 11.5394 7.8352 11.0898 7.61386M12.3662 11.1772C12.1821 11.4747 11.9505 11.7526 11.6799 11.9915M12.3662 11.1772L9.18765 8.25983M12.3662 11.1772L7.5508 11.6848M12.3662 11.1772L11.728 9.39554M11.6799 11.9915C11.3059 12.3218 10.8573 12.5779 10.3558 12.7089C9.49146 12.9349 8.47437 12.7397 7.87947 12.1306C7.74797 11.996 7.63933 11.8453 7.5508 11.6848M11.6799 11.9915L7.5508 11.6848M11.6799 11.9915L7.28553 8.90579M11.0898 7.61386C10.5151 7.33099 9.86413 7.17885 9.21043 7.20238C9.056 7.20793 8.90081 7.22309 8.75447 7.26792C8.53096 7.33641 8.3398 7.47054 8.16521 7.61386C7.86302 7.86193 7.59246 8.15004 7.43001 8.48823C7.36531 8.62292 7.31888 8.76281 7.28553 8.90579M11.0898 7.61386L9.18765 8.25983M11.0898 7.61386L7.5508 11.6848M11.0898 7.61386L11.728 9.39554M7.28553 8.90579C7.217 9.19966 7.20372 9.50658 7.20067 9.80826C7.19651 10.218 7.20896 10.6307 7.30355 11.0314C7.35671 11.2567 7.43719 11.4789 7.5508 11.6848M7.28553 8.90579L9.18765 8.25983M7.28553 8.90579L7.5508 11.6848M7.5508 11.6848L9.18765 8.25983M7.5508 11.6848L11.728 9.39554M15.9158 12.9431C16.9286 11.3069 17.4081 9.26869 16.572 7.5532C16.3409 7.07893 16.0172 6.64501 15.6574 6.24123C13.8307 4.19164 10.9395 2.90111 8.02645 3.00594C7.64039 3.01983 7.25171 3.05772 6.88587 3.16981C6.32709 3.34102 5.84919 3.67635 5.41273 4.03465C4.65726 4.65483 3.98103 5.3751 3.57489 6.22057C3.08071 7.24935 3.01306 8.39948 3.0017 9.52064C2.99132 10.545 3.02262 11.5767 3.25907 12.5786C3.49553 13.5805 3.948 14.558 4.69872 15.3266C6.18597 16.8492 8.72885 17.3372 10.8897 16.7724C12.1434 16.4446 13.2649 15.8046 14.2 14.9788C14.8765 14.3814 15.4554 13.6868 15.9158 12.9431Z" stroke="black" stroke-width="2" stroke-linecap="round" stroke-linejoin="round"/>
</svg>
