<svg width="20" height="20" viewBox="0 0 20 20" fill="none" xmlns="http://www.w3.org/2000/svg">
<path d="M15.9157 12.9431C16.9286 11.3069 17.408 9.26869 16.5719 7.5532C16.3408 7.07893 16.0173 6.64501 15.6575 6.24123C13.8308 4.19164 10.9395 2.90111 8.02646 3.00594C7.6404 3.01983 7.25164 3.05772 6.8858 3.16981C6.32702 3.34102 5.84912 3.67635 5.41266 4.03465C4.65718 4.65483 3.98096 5.3751 3.57483 6.22057C3.08064 7.24935 3.01306 8.39948 3.0017 9.52064C2.99132 10.545 3.02277 11.5767 3.25923 12.5786C3.49568 13.5805 3.94804 14.558 4.69877 15.3266C6.18602 16.8492 8.72872 17.3372 10.8895 16.7724C12.1433 16.4446 13.265 15.8046 14.2 14.9788C14.8765 14.3814 15.4553 13.6868 15.9157 12.9431Z" stroke="black" stroke-width="2" stroke-linecap="round" stroke-linejoin="round"/>
</svg>
