<svg width="20" height="20" viewBox="0 0 20 20" fill="none" xmlns="http://www.w3.org/2000/svg">
<path d="M12.3478 11.963C11.6509 12.5982 10.8149 13.0906 9.8804 13.3427C8.26985 13.7772 6.37468 13.4018 5.26616 12.2305C4.70662 11.6393 4.36945 10.8874 4.19321 10.1167C4.01697 9.34598 3.99353 8.55235 4.00127 7.76441C4.00973 6.90198 4.0601 6.01726 4.42844 5.22589C4.73115 4.57553 5.23517 4.02148 5.79826 3.54442C6.12357 3.26881 6.47976 3.01086 6.89625 2.87916C7.16893 2.79294 7.45869 2.76379 7.74643 2.7531C9.91765 2.67247 12.0726 3.66518 13.4341 5.24179C13.7024 5.55239 13.9434 5.88617 14.1157 6.251C14.7389 7.5706 14.3815 9.13846 13.6266 10.397C13.2835 10.9692 12.852 11.5035 12.3478 11.963ZM12.3478 11.963L16 16.7485" stroke="black" stroke-width="2" stroke-linecap="round" stroke-linejoin="round"/>
</svg>
